HIERARCHY
ROOT Hips
{
	OFFSET 0.000000 0.000000 0.000000
	CHANNELS 6 Xposition Yposition Zposition Zrotation Yrotation Xrotation 
	JOINT LHipJoint
	{
		OFFSET 0.000000 0.000000 0.000000
		CHANNELS 3 Zrotation Yrotation Xrotation
		JOINT LeftUpLeg
		{
			OFFSET 1.363060 -1.794630 0.839290
			CHANNELS 3 Zrotation Yrotation Xrotation
			JOINT LeftLeg
			{
				OFFSET 2.448110 -6.726130 0.000000
				CHANNELS 3 Zrotation Yrotation Xrotation
				JOINT LeftFoot
				{
					OFFSET 2.562200 -7.039590 0.000000
					CHANNELS 3 Zrotation Yrotation Xrotation
					JOINT LeftToeBase
					{
						OFFSET 0.157640 -0.433110 2.322550
						CHANNELS 3 Zrotation Yrotation Xrotation
						End Site
						{
							OFFSET 0.000000 0.000000 0.000000
						}
					}
				}
			}
		}
	}
	JOINT RHipJoint
	{
		OFFSET 0.000000 0.000000 0.000000
		CHANNELS 3 Zrotation Yrotation Xrotation
		JOINT RightUpLeg
		{
			OFFSET -1.305520 -1.794630 0.839290
			CHANNELS 3 Zrotation Yrotation Xrotation
			JOINT RightLeg
			{
				OFFSET -2.542530 -6.985550 0.000000
				CHANNELS 3 Zrotation Yrotation Xrotation
				JOINT RightFoot
				{
					OFFSET -2.568260 -7.056230 0.000000
					CHANNELS 3 Zrotation Yrotation Xrotation
					JOINT RightToeBase
					{
						OFFSET -0.164730 -0.452590 2.363150
						CHANNELS 3 Zrotation Yrotation Xrotation
						End Site
						{
							OFFSET 0.000000 0.000000 0.000000
						}
					}
				}
			}
		}
	}
}
MOTION
Frames: 27
Frame Time: 0.008333
2.680889 15.817127 0.457110 -179.529382 -81.846873 -137.060428 -8.745125 -0.359109 -2.389286 -21.366487 10.297139 -75.274419 -3.493633 5.258977 51.305806 3.138399 10.536267 -18.930099 -1.812601 -0.000000 -44.420500 8.578978 1.534730 0.672113 10.924478 -2.299470 -75.443439 2.848822 -5.412806 51.008600 -0.652746 1.154087 -13.698787 0.057500 0.000000 -66.638500
2.671998 15.832560 0.466412 -178.294124 -81.406983 -138.527602 -8.808487 -0.285111 -2.376689 -21.344581 10.705084 -75.023061 -3.522453 5.269345 51.133690 3.150127 10.610552 -18.956885 -1.828400 -0.000000 -44.406399 8.530271 1.532809 0.705496 11.030034 -2.180711 -74.999069 2.875376 -5.320328 50.649545 -0.595794 1.365993 -13.506911 0.047400 -0.000000 -66.728800
2.661942 15.850085 0.476236 -177.152890 -80.966867 -139.921787 -8.871391 -0.203725 -2.359015 -21.325495 11.129868 -74.735195 -3.555981 5.274230 50.919943 3.157373 10.668170 -18.968366 -1.839100 0.000000 -44.399200 8.484781 1.529482 0.745639 11.131761 -2.063834 -74.509228 2.901798 -5.219882 50.249976 -0.541784 1.561064 -13.299834 0.038100 -0.000000 -66.822400
2.650898 15.869727 0.486509 -176.115019 -80.529329 -141.234553 -8.933586 -0.115939 -2.336425 -21.308082 11.565836 -74.407814 -3.593443 5.272673 50.663809 3.160949 10.713561 -18.963348 -1.844800 -0.000000 -44.398800 8.442727 1.524967 0.791790 11.226587 -1.951687 -73.975000 2.927751 -5.111981 49.810538 -0.490834 1.738379 -13.077513 0.029600 -0.000000 -66.920000
2.638985 15.891411 0.496961 -175.198546 -80.096733 -142.447011 -8.994301 -0.022868 -2.309570 -21.294332 12.007667 -74.037681 -3.634291 5.263380 50.363760 3.161545 10.750785 -18.940021 -1.845700 0.000000 -44.404701 8.404984 1.519061 0.844149 11.308472 -1.846864 -73.399518 2.952712 -4.997492 49.332972 -0.443132 1.897082 -12.841256 0.021800 -0.000000 -67.020600
2.626561 15.915106 0.507770 -174.398073 -79.671609 -143.565890 -9.054186 0.074216 -2.278214 -21.279132 12.448080 -73.621538 -3.677043 5.245665 50.020680 3.160569 10.787232 -18.897463 -1.842300 0.000000 -44.418600 8.370921 1.512369 0.900568 11.376803 -1.752897 -72.782824 2.976511 -4.876897 48.818631 -0.398416 2.037697 -12.589997 0.014700 0.000000 -67.127600
2.613613 15.940654 0.518332 -173.748257 -79.256048 -144.552773 -9.111688 0.173885 -2.243820 -21.270459 12.881862 -73.158331 -3.721583 5.218017 49.632969 3.158389 10.825261 -18.833877 -1.834700 0.000000 -44.436900 8.342145 1.503814 0.962821 11.421636 -1.671088 -72.133620 2.998398 -4.751822 48.271489 -0.356864 2.160096 -12.326775 0.008200 0.000000 -67.235899
2.600625 15.968000 0.528898 -173.231582 -78.851083 -145.427205 -9.167885 0.274757 -2.206330 -21.261325 13.302949 -72.645713 -3.766146 5.180306 49.203334 3.156595 10.873087 -18.749241 -1.823700 0.000000 -44.462301 8.317502 1.494306 1.028193 11.443779 -1.603628 -71.451106 3.018227 -4.622531 47.692828 -0.318093 2.265248 -12.049842 0.002300 0.000000 -67.350299
2.587671 15.997002 0.539099 -172.863224 -78.457729 -146.171004 -9.221892 0.375341 -2.167121 -21.256717 13.707747 -72.084550 -3.810427 5.131749 48.731580 3.155519 10.932722 -18.642520 -1.809300 -0.000000 -44.491100 8.297673 1.483038 1.097571 11.437029 -1.549973 -70.743104 3.035555 -4.490359 47.086084 -0.282061 2.353966 -11.761567 -0.003300 -0.000000 -67.466200
2.574882 16.027412 0.548717 -172.651031 -78.075621 -146.772726 -9.273563 0.474520 -2.127067 -21.259574 14.091902 -71.476247 -3.853832 5.071981 48.218879 3.156023 11.008305 -18.514065 -1.792100 0.000000 -44.520400 8.282690 1.469747 1.171129 11.396840 -1.509636 -70.016783 3.050004 -4.356432 46.455025 -0.248542 2.427646 -11.463152 -0.008500 -0.000001 -67.583000
2.562667 16.059133 0.558113 -172.554495 -77.702798 -147.272340 -9.323543 0.570856 -2.086934 -21.261627 14.454933 -70.823442 -3.894965 5.002139 47.670717 3.158991 11.104284 -18.365372 -1.772700 0.000001 -44.551701 8.271539 1.455302 1.246193 11.327612 -1.479504 -69.270367 3.061543 -4.220679 45.800092 -0.217349 2.486390 -11.152323 -0.013600 0.000000 -67.704000
2.550942 16.091864 0.566860 -172.587763 -77.338656 -147.650014 -9.370838 0.663458 -2.048165 -21.270800 14.794914 -70.131872 -3.934086 4.922178 47.088064 3.164401 11.219943 -18.197397 -1.751000 -0.000000 -44.577800 8.264733 1.438873 1.324233 11.224572 -1.456939 -68.515346 3.070003 -4.084635 45.125729 -0.188304 2.532177 -10.832394 -0.018500 -0.000000 -67.823900
2.539866 16.125400 0.575123 -172.722327 -76.980987 -147.929872 -9.415383 0.751383 -2.011853 -21.284521 15.112426 -69.407975 -3.970697 4.833381 46.475867 3.172488 11.355828 -18.012376 -1.727400 -0.000000 -44.596400 8.261838 1.420865 1.403936 11.090799 -1.438001 -67.754717 3.075550 -3.948701 44.433424 -0.161250 2.565747 -10.503116 -0.023500 -0.000000 -67.943300
2.529496 16.159475 0.582963 -172.936911 -76.627885 -148.128585 -9.456780 0.833865 -1.979312 -21.302415 15.409066 -68.659429 -4.004692 4.737141 45.839208 3.183132 11.510529 -17.812975 -1.701999 -0.000000 -44.603700 8.262619 1.401491 1.484471 10.929441 -1.418624 -66.993624 3.078425 -3.813536 43.725603 -0.135937 2.588619 -10.165219 -0.028501 0.000000 -68.060600
2.519888 16.193842 0.590494 -173.208699 -76.277697 -148.264235 -9.494592 0.910297 -1.951869 -21.323932 15.686529 -67.895402 -4.036079 4.635170 45.183833 3.196095 11.681854 -17.602046 -1.675000 -0.000000 -44.596300 8.266781 1.381305 1.564494 10.744755 -1.395642 -66.237053 3.079062 -3.679782 43.004627 -0.112066 2.602583 -9.819523 -0.033700 -0.000000 -68.174900
2.510964 16.228213 0.597837 -173.513951 -75.928971 -148.353995 -9.528561 0.980555 -1.930636 -21.349083 15.947058 -67.125203 -4.065176 4.529267 44.515278 3.210884 11.866243 -17.382386 -1.646400 0.000000 -44.571500 8.274019 1.360786 1.642814 10.541727 -1.366259 -65.489891 3.078072 -3.547948 42.272479 -0.089309 2.609554 -9.466754 -0.039000 -0.000000 -68.285300
2.502727 16.262338 0.605149 -173.833114 -75.580353 -148.412872 -9.558467 1.044660 -1.916482 -21.377675 16.192535 -66.358973 -4.092262 4.421464 43.840247 3.226993 12.059900 -17.157061 -1.616200 0.000000 -44.527100 8.283889 1.340667 1.717835 10.326330 -1.329095 -64.757028 3.076125 -3.418617 41.532136 -0.067150 2.612390 -9.107828 -0.044400 -0.000000 -68.390600
2.495101 16.295933 0.612600 -174.147126 -75.231021 -148.454271 -9.584309 1.103050 -1.909785 -21.410060 16.425300 -65.607538 -4.117875 4.313858 43.165421 3.243764 12.258069 -16.929071 -1.584600 0.000001 -44.462100 8.295887 1.321650 1.788506 10.104194 -1.283331 -64.044305 3.074025 -3.292304 40.786605 -0.045050 2.614103 -8.743895 -0.049701 0.000000 -68.490000
2.488114 16.328793 0.620323 -174.444989 -74.880184 -148.486806 -9.606243 1.156429 -1.910803 -21.447059 16.646864 -64.879599 -4.142513 4.208369 42.496705 3.260565 12.456435 -16.700739 -1.551501 -0.000000 -44.377500 8.309361 1.304739 1.853302 9.880920 -1.229933 -63.356087 3.072455 -3.169431 40.039028 -0.022361 2.617995 -8.375367 -0.054799 -0.000000 -68.583900
2.481664 16.360687 0.628499 -174.716146 -74.527443 -148.516924 -9.624659 1.205861 -1.918938 -21.490074 16.859103 -64.185070 -4.166838 4.106915 41.840719 3.276727 12.650030 -16.474884 -1.517001 0.000000 -44.274500 8.323666 1.290443 1.911696 9.661900 -1.170172 -62.697972 3.072178 -3.050489 39.293681 0.001556 2.627526 -8.003454 -0.059500 -0.000001 -68.672201
2.475597 16.391362 0.637238 -174.953214 -74.172487 -148.548191 -9.640048 1.252546 -1.933192 -21.540972 17.063312 -63.532896 -4.191498 4.011072 41.202972 3.291667 12.834498 -16.253264 -1.481301 0.000000 -44.156200 8.338171 1.279095 1.963778 9.451340 -1.105440 -62.075594 3.073913 -2.935850 38.554219 0.027315 2.645830 -7.628804 -0.063400 -0.000000 -68.755800
2.469800 16.420682 0.646551 -175.161521 -73.816073 -148.573985 -9.652641 1.297826 -1.952314 -21.604748 17.259904 -62.930214 -4.217313 3.921683 40.586792 3.304730 13.005051 -16.037493 -1.444400 0.000000 -44.027000 8.352491 1.270654 2.010664 9.250686 -1.038116 -61.496070 3.078138 -2.826137 37.825296 0.055512 2.676170 -7.252688 -0.066100 -0.000000 -68.835600
2.464317 16.448361 0.656774 -175.312298 -73.457446 -148.619058 -9.662904 1.341807 -1.976251 -21.677030 17.453685 -62.388252 -4.244552 3.841275 40.002857 3.315452 13.157543 -15.831624 -1.406900 0.000000 -43.889300 8.365616 1.265359 2.051624 9.068535 -0.964880 -60.960847 3.085483 -2.721159 37.109197 0.086180 2.718222 -6.874298 -0.067500 -0.000000 -68.913900
2.458868 16.474325 0.667683 -175.432445 -73.098447 -148.655688 -9.670638 1.386032 -2.003421 -21.768724 17.643012 -61.910675 -4.274384 3.769062 39.448838 3.323237 13.287762 -15.635502 -1.368900 -0.000000 -43.749400 8.377785 1.262382 2.090044 8.899552 -0.888711 -60.480456 3.095924 -2.621903 36.411632 0.119708 2.774605 -6.495950 -0.067200 -0.000000 -68.991601
2.453330 16.498387 0.679385 -175.509723 -72.739229 -148.692440 -9.675773 1.430667 -2.033441 -21.880564 17.830880 -61.506381 -4.307427 3.706101 38.930229 3.327664 13.391702 -15.452319 -1.331100 0.000000 -43.611100 8.388504 1.261095 2.127601 8.746457 -0.805064 -60.059495 3.109630 -2.528378 35.735099 0.155846 2.843963 -6.117927 -0.065100 0.000001 -69.070300
2.447466 16.520346 0.691855 -175.541635 -72.379733 -148.727877 -9.678114 1.476042 -2.066083 -22.016110 18.020376 -61.181571 -4.344564 3.652702 38.449520 3.328282 13.465601 -15.284624 -1.294000 0.000000 -43.478400 8.397564 1.260546 2.166922 8.608821 -0.709558 -59.703767 3.126524 -2.440708 35.082292 0.194175 2.924310 -5.741219 -0.061200 -0.000000 -69.151200
2.441149 16.540134 0.705072 -175.527727 -72.019291 -148.760556 -9.677172 1.522176 -2.101661 -22.178970 18.214056 -60.941442 -4.386596 3.609051 38.008487 3.324719 13.506243 -15.135135 -1.258500 0.000001 -43.354400 8.404810 1.260155 2.210420 8.484583 -0.596334 -59.417817 3.146127 -2.358901 34.455768 0.234069 3.012685 -5.367024 -0.055600 0.000000 -69.234999
